<svg width="71" height="71" viewBox="0 0 71 71" fill="none" xmlns="http://www.w3.org/2000/svg">
<circle cx="35.5" cy="35.5" r="35.5" fill="#E2515D"/>
<path d="M23.5134 46.9123L21.0209 47.7532L20.8107 47.543C20.8507 45.4408 20.8907 43.3387 20.9308 41.2365C20.9908 39.1143 21.0209 36.9922 21.0209 34.87C21.0209 33.9891 21.0009 33.1082 20.9608 32.2273C20.9408 31.3264 20.9108 30.4355 20.8707 29.5546C20.8307 28.9539 20.5904 28.5535 20.15 28.3533C19.7296 28.1531 19.229 28.013 18.6485 27.9329V27.3923L18.8587 27.1821H26.5766C29.0391 27.1821 30.8109 27.6126 31.892 28.4734C32.9731 29.3143 33.5137 30.5356 33.5137 32.1372C33.5137 33.9791 32.873 35.5407 31.5917 36.822C30.931 37.5027 30.1002 37.9832 29.0991 38.2635C28.0981 38.5237 27.1071 38.6939 26.1261 38.774C25.8458 38.794 25.4754 38.814 25.015 38.8341C24.5745 38.8341 24.1741 38.8741 23.8137 38.9542C23.4734 39.0142 23.3032 39.1444 23.3032 39.3446C23.3032 39.5848 23.3132 40.1154 23.3332 40.9362C23.3733 41.757 23.4133 42.708 23.4534 43.7891C23.4934 44.8502 23.5134 45.8913 23.5134 46.9123ZM25.4354 28.3533H23.7537C23.6536 28.3533 23.5835 28.3934 23.5435 28.4734C23.5034 28.5335 23.4834 28.6036 23.4834 28.6837C23.4233 30.005 23.3733 31.4565 23.3332 33.0381C23.3132 34.5997 23.3032 36.0312 23.3032 37.3325C23.3032 37.4727 23.3433 37.5728 23.4233 37.6328C23.5034 37.6729 23.5735 37.6929 23.6336 37.6929C25.7157 37.6929 27.3974 37.2224 28.6787 36.2814C29.9801 35.3405 30.6307 34.0391 30.6307 32.3774C30.6307 31.3364 30.3905 30.5255 29.91 29.945C29.4295 29.3644 28.7888 28.9539 27.988 28.7137C27.2072 28.4734 26.3563 28.3533 25.4354 28.3533Z" fill="#F9F7EF"/>
<path d="M51.9707 35.0802C51.9507 35.0402 51.9407 34.9801 51.9407 34.9C51.9407 34.7799 51.9607 34.7098 52.0007 34.6898L53.7125 33.6387C53.7325 33.6187 53.7926 33.6087 53.8927 33.6087C54.1529 33.6087 54.3732 33.7989 54.5533 34.1793C54.7535 34.5597 54.9037 34.9801 55.0038 35.4406C55.1239 35.9011 55.184 36.2514 55.184 36.4917C55.184 37.3125 55.0038 38.1133 54.6434 38.8941C54.3031 39.6549 53.9227 40.3856 53.5023 41.0864C52.8216 42.1875 52.0808 43.2486 51.28 44.2696C50.4792 45.2706 49.6383 46.2416 48.7574 47.1826C48.6173 47.3227 48.4571 47.4629 48.2769 47.603C48.0967 47.7432 47.9065 47.8132 47.7063 47.8132C47.5462 47.8132 47.386 47.7432 47.2258 47.603C47.0657 47.4629 46.9656 47.3227 46.9255 47.1826C46.8054 46.8222 46.6352 46.2617 46.415 45.5009C46.1948 44.7201 45.9545 43.8392 45.6943 42.8582C45.434 41.8772 45.1737 40.8862 44.9135 39.8851C44.6532 38.8641 44.413 37.9231 44.1927 37.0622C44.1727 37.0022 44.1427 36.9421 44.1026 36.8821C44.0626 36.802 44.0025 36.7619 43.9225 36.7619C43.7423 36.7619 43.6322 36.812 43.5921 36.9121C42.7513 38.4537 41.8503 40.1454 40.8893 41.9873C39.9284 43.8292 39.0375 45.641 38.2166 47.4228L36.9553 47.8132L36.7451 47.6331L36.0244 40.9062C35.8642 39.4647 35.684 38.3536 35.4838 37.5728C35.3036 36.792 35.1134 36.2414 34.9132 35.9211C34.733 35.5807 34.5629 35.3805 34.4027 35.3205C34.2626 35.2404 34.1525 35.2003 34.0724 35.2003C33.732 35.2003 33.3316 35.3004 32.8711 35.5006C32.4107 35.7008 31.9802 35.9111 31.5798 36.1313L31.3095 35.5307C31.71 35.2504 32.1404 34.9501 32.6009 34.6297C33.0613 34.3094 33.5318 34.0391 34.0123 33.8189C34.4928 33.5987 34.9333 33.4886 35.3337 33.4886C35.8742 33.4886 36.2946 33.6487 36.595 33.9691C36.9153 34.2694 37.1555 34.6398 37.3157 35.0802C37.4759 35.5207 37.596 35.9511 37.6761 36.3715C37.8963 37.5728 38.0564 38.784 38.1566 40.0053C38.2767 41.2265 38.4068 42.4478 38.547 43.669L38.8773 43.7291C39.7382 42.1875 40.589 40.6359 41.4299 39.0743C42.2708 37.4927 43.0816 35.9111 43.8624 34.3294L45.424 33.5486L45.7844 33.6387C46.1848 35.5207 46.6052 37.3926 47.0456 39.2545C47.4861 41.0964 48.0367 42.9082 48.6973 44.69C48.7374 44.7901 48.8075 44.8903 48.9076 44.9904C49.0077 45.0905 49.1178 45.1405 49.2379 45.1405C49.298 45.1405 49.378 45.1105 49.4781 45.0504C49.5782 44.9703 49.6483 44.9003 49.6884 44.8402C50.2089 44.1995 50.7294 43.5289 51.25 42.8281C51.7705 42.1074 52.2109 41.3566 52.5713 40.5758C52.9317 39.795 53.1119 39.0042 53.1119 38.2034C53.1119 37.7029 52.9917 37.1724 52.7515 36.6118C52.5112 36.0512 52.251 35.5407 51.9707 35.0802Z" fill="#F9F7EF"/>
<path d="M18.348 25.0031C24.0918 21.0144 23.0485 19.146 26.485 19.146C29.9216 19.146 31.7502 19.9438 32.7075 21.0144C31.2716 23.1348 29.9216 21.5393 26.485 21.5393C23.0485 21.5393 18.348 27.2061 18.348 25.0031Z" fill="#F9F7EF"/>
</svg>
